<?xml version="1.0" encoding="UTF-8"?>
<svg width="306px" height="63px" viewBox="0 0 306 63" version="1.1" xmlns="http://www.w3.org/2000/svg" xmlns:xlink="http://www.w3.org/1999/xlink">
    <!-- Generator: Sketch 49.1 (51147) - http://www.bohemiancoding.com/sketch -->
    <title>concord</title>
    <desc>Created with Sketch.</desc>
    <defs></defs>
    <g id="Page-1" stroke="none" stroke-width="1" fill="none" fill-rule="evenodd" stroke-linecap="round" stroke-linejoin="round">
        <g id="Concord-Assets" transform="translate(-544.000000, -188.000000)">
            <g id="concord" transform="translate(546.000000, 190.000000)">
                <g id="Group" transform="translate(0.000000, 2.000000)">
                    <g>
                        <g stroke-width="3">
                            <path d="M6,7.5 L36,7.5" id="Shape" stroke="#CCCCCC"></path>
                            <path d="M36,29.5 L56,29.5" id="Shape" stroke="#CCCCCC"></path>
                            <polyline id="Shape" stroke="#CCCCCC" points="20.5 9 20.5 29.5 35.5 29.5 35.5 51"></polyline>
                            <circle id="Oval" stroke="#D1E9F6" fill="#FFFFFF" fill-rule="nonzero" cx="6.7" cy="6.4" r="6.4"></circle>
                            <path d="M36,51.5 L56,51.5" id="Shape" stroke="#CCCCCC"></path>
                        </g>
                        <rect id="Rectangle-path" stroke="#094E8E" stroke-width="3" fill="#FFFFFF" fill-rule="nonzero" x="29.7" y="0.4" width="11.9" height="11.9"></rect>
                        <rect id="Rectangle-path" stroke="#094E8E" stroke-width="3" fill="#FFFFFF" fill-rule="nonzero" x="50.4" y="22.7" width="11.9" height="11.9"></rect>
                        <rect id="Rectangle-path" stroke="#137DC1" stroke-width="2.99997123" fill="#FFFFFF" fill-rule="nonzero" transform="translate(35.903820, 28.632650) rotate(45.000000) translate(-35.903820, -28.632650) " x="29.9538771" y="22.6827071" width="11.8998859" height="11.8998859"></rect>
                        <rect id="Rectangle-path" stroke="#094E8E" stroke-width="3" fill="#FFFFFF" fill-rule="nonzero" x="29.7" y="44.9" width="11.9" height="11.9"></rect>
                    </g>
                    <circle id="Oval" stroke="#2F2951" stroke-width="3" fill="#FFFFFF" fill-rule="nonzero" cx="56.4" cy="50.9" r="6.4"></circle>
                </g>
                <g id="Group" transform="translate(78.000000, 0.000000)" fill-rule="nonzero" stroke="#FDFDFD" stroke-width="4">
                    <path d="M15.6,43.1 C13.5,43.1 11.6,42.7 9.8,41.9 C8,41.1 6.4,40 5.1,38.6 C3.8,37.2 2.7,35.6 2,33.8 C1.2,32 0.9,30 0.9,28 L0.9,27.9 C0.9,25.9 1.3,23.9 2,22.1 C2.8,20.3 3.8,18.7 5.1,17.3 C6.4,15.9 8,14.8 9.8,14 C11.6,13.2 13.6,12.8 15.7,12.8 C18.4,12.8 20.6,13.3 22.4,14.3 C24.2,15.3 25.8,16.6 27.3,18.2 L26.4,19 C25.1,17.6 23.6,16.4 21.8,15.4 C20.1,14.4 18,13.9 15.6,13.9 C13.7,13.9 11.9,14.3 10.2,15 C8.6,15.7 7.1,16.7 5.9,18 C4.7,19.3 3.7,20.8 3.1,22.4 C2.4,24.1 2.1,25.9 2.1,27.8 L2.1,27.9 C2.1,29.8 2.4,31.6 3.1,33.3 C3.8,35 4.8,36.5 6,37.8 C7.2,39.1 8.7,40.1 10.3,40.8 C12,41.6 13.7,41.9 15.6,41.9 C18.1,41.9 20.2,41.4 22,40.3 C23.8,39.2 25.3,38 26.6,36.5 L27.5,37.3 C26.1,38.9 24.5,40.2 22.6,41.4 C20.6,42.5 18.3,43.1 15.6,43.1 Z" id="Shape"></path>
                    <path d="M48.4,43.1 C46.1,43.1 44.1,42.7 42.2,41.9 C40.3,41.1 38.8,40 37.4,38.6 C36.1,37.2 35,35.6 34.3,33.8 C33.6,32 33.2,30 33.2,28 L33.2,27.9 C33.2,25.9 33.6,24 34.3,22.1 C35,20.3 36,18.6 37.3,17.3 C38.6,16 40.2,14.8 42.1,14 C44,13.2 46,12.8 48.3,12.8 C50.5,12.8 52.6,13.2 54.5,14 C56.4,14.8 58,15.9 59.3,17.3 C60.6,18.7 61.7,20.3 62.4,22.1 C63.1,23.9 63.5,25.9 63.5,27.9 L63.5,28 C63.5,30.1 63.1,32 62.4,33.8 C61.7,35.6 60.7,37.3 59.4,38.6 C58.1,40 56.5,41.1 54.6,41.9 C52.7,42.7 50.6,43.1 48.4,43.1 Z M48.4,41.9 C50.4,41.9 52.3,41.5 54,40.8 C55.7,40.1 57.1,39.1 58.4,37.8 C59.7,36.5 60.6,35 61.2,33.3 C61.9,31.6 62.2,29.8 62.2,27.9 L62.2,27.8 C62.2,25.9 61.9,24.1 61.2,22.4 C60.5,20.7 59.6,19.2 58.3,17.9 C57.1,16.6 55.6,15.6 53.9,14.9 C52.2,14.2 50.3,13.8 48.3,13.8 C46.2,13.8 44.4,14.2 42.7,14.9 C41,15.6 39.6,16.6 38.3,17.9 C37.1,19.2 36.1,20.7 35.5,22.4 C34.8,24.1 34.5,25.9 34.5,27.8 L34.5,27.9 C34.5,29.8 34.8,31.6 35.5,33.3 C36.2,35 37.1,36.5 38.4,37.8 C39.7,39.1 41.1,40.1 42.8,40.8 C44.5,41.5 46.4,41.9 48.4,41.9 Z" id="Shape" fill="#666766"></path>
                    <path d="M72.1,13.4 L73.4,13.4 L73.4,21.3 C73.6,20.4 74,19.5 74.6,18.5 C75.2,17.5 76,16.6 76.9,15.7 C77.9,14.8 79,14.1 80.3,13.6 C81.6,13 83.2,12.8 84.9,12.8 C86.9,12.8 88.6,13.1 90.1,13.8 C91.6,14.4 92.9,15.3 93.9,16.5 C94.9,17.7 95.7,19.1 96.2,20.7 C96.7,22.3 97,24.1 97,26.2 L97,42.6 L95.7,42.6 L95.7,26.3 C95.7,24.5 95.5,22.8 95,21.3 C94.5,19.8 93.8,18.5 92.9,17.4 C92,16.3 90.8,15.5 89.4,14.9 C88,14.3 86.4,14 84.6,14 C83,14 81.5,14.3 80.1,15 C78.7,15.6 77.5,16.5 76.5,17.7 C75.5,18.8 74.6,20.2 74,21.7 C73.4,23.2 73.1,24.8 73.1,26.6 L73.1,42.7 L71.8,42.7 L71.8,13.4 L72.1,13.4 Z" id="Shape" fill="#666766"></path>
                    <path d="M120.2,43.1 C118.1,43.1 116.2,42.7 114.4,41.9 C112.6,41.1 111,40 109.7,38.6 C108.4,37.2 107.3,35.6 106.6,33.8 C105.8,32 105.5,30 105.5,28 L105.5,27.9 C105.5,25.9 105.9,23.9 106.6,22.1 C107.4,20.3 108.4,18.7 109.7,17.3 C111,15.9 112.6,14.8 114.4,14 C116.2,13.2 118.2,12.8 120.3,12.8 C123,12.8 125.2,13.3 127,14.3 C128.8,15.3 130.4,16.6 131.9,18.2 L131,19 C129.7,17.6 128.2,16.4 126.4,15.4 C124.6,14.4 122.6,13.9 120.2,13.9 C118.3,13.9 116.5,14.3 114.8,15 C113.2,15.7 111.7,16.7 110.5,18 C109.3,19.3 108.3,20.8 107.7,22.4 C107.1,24 106.7,25.9 106.7,27.8 L106.7,27.9 C106.7,29.8 107,31.6 107.7,33.3 C108.4,35 109.4,36.5 110.6,37.8 C111.8,39.1 113.3,40.1 114.9,40.8 C116.6,41.6 118.3,41.9 120.2,41.9 C122.7,41.9 124.8,41.4 126.6,40.3 C128.4,39.2 129.9,38 131.2,36.5 L132.1,37.3 C130.7,38.9 129.1,40.2 127.2,41.4 C125.2,42.5 122.9,43.1 120.2,43.1 Z" id="Shape" fill="#666766"></path>
                    <path d="M153,43.1 C150.7,43.1 148.7,42.7 146.8,41.9 C145,41.1 143.4,40 142,38.6 C140.7,37.2 139.6,35.6 138.9,33.8 C138.2,32 137.8,30 137.8,28 L137.8,27.9 C137.8,25.9 138.2,24 138.9,22.1 C139.6,20.3 140.6,18.6 141.9,17.3 C143.2,15.9 144.8,14.8 146.7,14 C148.6,13.2 150.6,12.8 152.9,12.8 C155.1,12.8 157.2,13.2 159.1,14 C161,14.8 162.6,15.9 163.9,17.3 C165.2,18.7 166.3,20.3 167,22.1 C167.7,23.9 168.1,25.9 168.1,27.9 L168.1,28 C168.1,30.1 167.7,32 167,33.8 C166.3,35.6 165.3,37.3 164,38.6 C162.7,40 161.1,41.1 159.2,41.9 C157.3,42.7 155.3,43.1 153,43.1 Z M153,41.9 C155,41.9 156.9,41.5 158.6,40.8 C160.3,40.1 161.7,39.1 163,37.8 C164.3,36.5 165.2,35 165.8,33.3 C166.5,31.6 166.8,29.8 166.8,27.9 L166.8,27.8 C166.8,25.9 166.5,24.1 165.8,22.4 C165.1,20.7 164.2,19.2 162.9,17.9 C161.7,16.6 160.2,15.6 158.5,14.9 C156.8,14.2 154.9,13.8 152.9,13.8 C150.8,13.8 149,14.2 147.3,14.9 C145.6,15.6 144.2,16.6 142.9,17.9 C141.7,19.2 140.7,20.7 140.1,22.4 C139.5,24.1 139.1,25.9 139.1,27.8 L139.1,27.9 C139.1,29.8 139.4,31.6 140.1,33.3 C140.8,35 141.7,36.5 143,37.8 C144.2,39.1 145.7,40.1 147.4,40.8 C149.1,41.5 151,41.9 153,41.9 Z" id="Shape" fill="#666766"></path>
                    <path d="M176.8,13.4 L178.1,13.4 L178.1,22.7 C178.4,21.5 179,20.3 179.6,19.1 C180.3,17.9 181.1,16.8 182.1,15.9 C183.1,15 184.3,14.2 185.6,13.6 C186.9,13 188.4,12.7 190,12.7 L190,13.9 L189.7,13.9 C187.9,13.9 186.3,14.3 184.8,15.2 C183.4,16.1 182.1,17.2 181.1,18.5 C180.1,19.8 179.3,21.3 178.8,22.9 C178.3,24.5 178,26 178,27.4 L178,42.4 L176.7,42.4 L176.7,13.4 L176.8,13.4 Z" id="Shape" fill="#666766"></path>
                    <path d="M208.8,43.1 C206.7,43.1 204.8,42.7 203,41.9 C201.2,41.1 199.7,40 198.4,38.7 C197.1,37.3 196.1,35.7 195.4,33.9 C194.7,32 194.3,30.1 194.3,28 L194.3,27.9 C194.3,25.8 194.7,23.8 195.4,22 C196.1,20.1 197.1,18.5 198.4,17.2 C199.7,15.8 201.2,14.8 203,14 C204.8,13.2 206.7,12.8 208.8,12.8 C210.5,12.8 212,13 213.5,13.5 C214.9,14 216.3,14.7 217.4,15.5 C218.5,16.3 219.5,17.4 220.4,18.6 C221.2,19.8 221.8,21.1 222.3,22.5 L222.3,0 L223.6,0 L223.6,42.4 L222.3,42.4 L222.3,33.4 C221.9,34.8 221.3,36.1 220.4,37.3 C219.6,38.5 218.6,39.5 217.4,40.4 C216.2,41.3 214.9,41.9 213.5,42.4 C212,42.8 210.4,43.1 208.8,43.1 Z M208.8,41.9 C210.8,41.9 212.6,41.5 214.2,40.8 C215.8,40 217.2,39 218.4,37.8 C219.6,36.5 220.5,35 221.2,33.4 C221.9,31.8 222.2,29.9 222.2,28 L222.2,27.9 C222.2,26 221.9,24.3 221.2,22.6 C220.5,20.9 219.6,19.4 218.4,18.1 C217.2,16.8 215.8,15.8 214.2,15.1 C212.6,14.3 210.8,14 208.8,14 C206.8,14 205,14.4 203.4,15.1 C201.8,15.8 200.4,16.8 199.2,18.1 C198,19.4 197.1,20.8 196.5,22.5 C195.9,24.2 195.5,26 195.5,28 L195.5,28.1 C195.5,30 195.8,31.9 196.5,33.6 C197.1,35.3 198,36.8 199.2,38.1 C200.4,39.4 201.8,40.4 203.4,41.1 C205,41.5 206.8,41.9 208.8,41.9 Z" id="Shape" fill="#666766"></path>
                </g>
            </g>
        </g>
    </g>
</svg>